(  ___  |\     /|(  ____ \(  __  \
| (   ) |( \   / )| (    \/| (  \  
| (___) | \ (_) / | (__    | |   ) |
|  ___  |   _ (  |  __)   | |   | |
| (   ) | / ( ) \ | (      | |   ) |
| )   ( |( /   \ )| (____/\| (__/  
|/     \||/     \|(_______/(______/
 _    _    _    _    _    _    _    _  
/ \  / \  / \  / \  / \  / \  / \  / \
( p )( r )( e )( s )( e )( n )( t )( s )
\_/  \_/  \_/  \_/  \_/  \_/  \_/  \_/


Hansel.And.Gretel.Get.Baked.2013.HDRiP.AC3-2.0.XviD-AXED
 
http://www.imdb.com/title/tt2081194/

PLOT INFO:
A brother and sister battle a witch who lures teenagers into her suburban home 
with her special blend of marijuana where she then proceeds to kill and eat them 
to maintain her youth and beauty.

MEDIAINFO:
General
Complete name                            : Hansel.And.Gretel.Get.Baked.2013.HDRiP.AC3-2.0.XviD-AXED.avi
Format                                   : AVI
Format/Info                              : Audio Video Interleave
File size                                : 1.27 GiB
Duration                                 : 1h 26mn
Overall bit rate                         : 2 087 Kbps

Video
ID                                       : 0
Format                                   : MPEG-4 Visual
Format profile                           : Advanced Simple@L5
Format settings, BVOP                    : 2
Format settings, QPel                    : No
Format settings, GMC                     : No warppoints
Format settings, Matrix                  : Default (H.263)
Muxing mode                              : Packed bitstream
Codec ID                                 : XVID
Codec ID/Hint                            : XviD
Duration                                 : 1h 26mn
Bit rate                                 : 1 888 Kbps
Width                                    : 720 pixels
Height                                   : 384 pixels
Display aspect ratio                     : 1.85:1
Frame rate                               : 23.976 fps
Color space                              : YUV
Chroma subsampling                       : 4:2:0
Bit depth                                : 8 bits
Scan type                                : Progressive
Compression mode                         : Lossy
Bits/(Pixel*Frame)                       : 0.285
Stream size                              : 1.14 GiB (90%)
Writing library                          : XviD 64

Audio
ID                                       : 1
Format                                   : AC-3
Format/Info                              : Audio Coding 3
Mode extension                           : CM (complete main)
Format settings, Endianness              : Big
Codec ID                                 : 2000
Duration                                 : 1h 26mn
Bit rate mode                            : Constant
Bit rate                                 : 192 Kbps
Channel(s)                               : 2 channels
Channel positions                        : Front: L R
Sampling rate                            : 44.1 KHz
Bit depth                                : 16 bits
Compression mode                         : Lossy
Stream size                              : 119 MiB (9%)
Alignment                                : Aligned on interleaves
Interleave, duration                     : 70 ms (1.67 video frames)
Interleave, preload duration             : 208 ms
Title                                    : getbaked (1) - [1]


SOURCE:
720p Super Secret Source

NOTES:
A new stoner horror comedy twist on the tale of Hansel & Gretel from our own 
super secret 720p source, enjoy!

AXED! - The only name to trust for VOD/HDRiP!


Poster:

 
http://i.imgur.com/pwa3enE.jpg


Screenshots:

 
http://i.imgur.com/NB0D7yn.png

 
http://i.imgur.com/B2t7WKu.png

 
http://i.imgur.com/xqrBfiS.png


SEED AND ENJOY!